# xmcd
#
# Track frame offsets:
#	150
#	112287
#	181193
#	210045
#	304487
#
# Disc length: 4658 seconds
#
# Revision: 1
# Processed by: cddbd v1.5.2PL0 Copyright (c) Steve Scherf et al.
# Submitted via: audiograbber 1.83.01
#
DISCID=3f123005
DTITLE=Micky and The Hartbeats - 68-10-10 The Matrix, San Francisco CA
DYEAR=1900
DGENRE=
TTITLE0=Jam 2
TTITLE1=Turn On Your Lovelight
TTITLE2=Drums
TTITLE3=Jam
TTITLE4=Death Don't Have No Mercy
EXTD=
EXTT0=
EXTT1=
EXTT2=
EXTT3=
EXTT4=
PLAYORDER=
